<svg width="225" height="70" viewBox="0 0 225 70" fill="none" xmlns="http://www.w3.org/2000/svg">
<g clip-path="url(#clip0_85_400)">
<path d="M53.8599 0C50.5397 0 47.8535 2.69414 47.8535 6.01875C47.8535 9.34335 50.5361 12.0228 53.8599 12.0228C57.1838 12.0228 59.8663 9.33602 59.8663 6.01875C59.8663 2.70147 57.1728 0 53.8599 0Z" fill="#0070B7"/>
<path d="M40.689 25.2801L48.1906 15.4016C48.5754 14.8957 48.6047 14.2066 48.2712 13.6678L45.083 8.55441C44.8008 8.10356 44.3061 7.83231 43.7747 7.83597L30.0212 7.93128L22.4793 7.92395C21.8893 7.92395 21.6254 8.66438 22.0871 9.03826L24.2017 10.7427C24.4985 10.981 24.8503 11.1459 25.2278 11.2156L38.3253 13.6824L22.1201 31.1009L0.795388 34.1286C0.0551238 34.2349 -0.260038 35.1256 0.249352 35.6718L2.33089 37.9077C2.74133 38.3512 3.32401 38.5968 3.92868 38.5858L24.5168 38.2486C25.2791 38.2376 26.023 38.0213 26.6753 37.6218L31.608 34.6161L42.0193 42.8818C42.4298 43.208 42.6973 43.6772 42.7669 44.1977L44.7495 58.7937C44.8411 59.4828 45.4311 59.996 46.1237 59.996H47.1828C47.9487 59.996 48.5681 59.3765 48.5717 58.6141L48.634 42.4163C48.634 41.5805 48.3702 40.7668 47.8718 40.096L38.7871 27.8496L40.6854 25.2801H40.689Z" fill="#0070B7"/>
<path d="M92.5224 45.9402L85.4239 33.0962H79.7876V45.9402H72.0918V9.79102H88.9969C96.5278 9.79102 101.189 14.7211 101.189 21.4436C101.189 27.7849 97.1252 31.2525 93.226 32.1762L101.409 45.9438H92.5224V45.9402ZM93.2809 21.3886C93.2809 18.4086 90.9502 16.5649 87.9159 16.5649H79.7876V26.3187H87.9159C90.9502 26.3187 93.2809 24.475 93.2809 21.3886Z" fill="#004F5A"/>
<path d="M106.936 45.9402V9.79102H132.511V16.5649H114.631V24.1524H132.134V30.9263H114.631V39.1626H132.511V45.9365H106.936V45.9402Z" fill="#004F5A"/>
<path d="M138.521 45.9402V9.79102H155.427C163.284 9.79102 167.564 15.1023 167.564 21.4436C167.564 27.7849 163.229 33.0413 155.427 33.0413H146.214V45.9402H138.521ZM159.707 21.4436C159.707 18.4086 157.376 16.5649 154.342 16.5649H146.214V26.2674H154.342C157.376 26.2674 159.707 24.4237 159.707 21.4436Z" fill="#004F5A"/>
<path d="M172.061 45.9402V9.79102H179.808V39.1663H195.089V45.9402H172.061Z" fill="#004F5A"/>
<path d="M203.489 45.9402V31.1462L189.618 9.79102H198.395L207.337 24.2624L216.279 9.79102H225.004L211.188 31.1462V45.9402H203.493H203.489Z" fill="#004F5A"/>
<path d="M71.9043 69.999V54.9375H74.5465V67.6714H81.1832V69.9954H71.9043V69.999Z" fill="#0070B7"/>
<path d="M83.5107 69.999V54.9375H86.1536V69.999H83.5107Z" fill="#0070B7"/>
<path d="M98.3632 69.999L93.328 63.6321L91.9977 65.1899V69.999H89.3555V54.9375H91.9977V62.0962L97.8905 54.9375H101.163L95.0467 62.0266L101.639 69.9954H98.3669L98.3632 69.999Z" fill="#0070B7"/>
<path d="M103.377 69.999V54.9375H113.693V57.2614H106.019V61.1469H113.535V63.4708H106.019V67.6714H113.693V69.9954H103.377V69.999Z" fill="#0070B7"/>
</g>
<defs>
<clipPath id="clip0_85_400">
<rect width="225" height="70" fill="white"/>
</clipPath>
</defs>
</svg>
